<svg version="1" xmlns="http://www.w3.org/2000/svg" width="933.333" height="933.333" viewBox="0 0 700.000000 700.000000"><path d="M191.8 93.7L34 172.3V529l133.8 66.6c73.5 36.7 144.6 72 157.9 78.5L350 686l26.2-12.9c14.5-7.1 85.6-42.4 158.1-78.5L666 529V172.3L508 93.7C421.1 50.4 349.9 15 349.8 15.1c-.2 0-71.3 35.4-158 78.6zm201.6-17.3c23.2 11.7 79.6 40.1 125.4 63.1 45.7 22.9 83.2 42 83.2 42.3 0 .4-56.7 29.1-126 63.9l-126 63.2-126-63.2c-69.3-34.8-126-63.5-126-63.9 0-.4 42.6-22 94.8-48.2 52.1-26.1 108.4-54.5 125.2-63C334.8 62 349.1 55 349.9 55c.8 0 20.4 9.6 43.5 21.4zm231.4 284.7l-.3 142.1-124 61.3-124 61.3-.3-141.6c-.1-84.6.2-142 .7-142.5 1-1 246.1-122.5 247.4-122.6.4-.1.6 63.9.5 142z"/></svg>